<svg width="1254" height="472" viewBox="0 0 1254 472" fill="none" xmlns="http://www.w3.org/2000/svg">
<path d="M5 467.052L325 371L430 213L852 158L1233 6" stroke="#F90B28" stroke-width="1.6"/>
<rect x="1228" width="12" height="11.8766" fill="black"/>
<rect x="847" y="152.807" width="12" height="11.8766" fill="black"/>
<rect x="423" y="208.054" width="12" height="11.8766" fill="black"/>
<rect x="318" y="365.781" width="12" height="11.8766" fill="black"/>
<rect y="460.124" width="12" height="11.8766" fill="black"/>
<path d="M310.422 400.534V394.773H311.568V400.534H310.422ZM308.116 398.224V397.082H313.878V398.224H308.116ZM315.408 400.295V399.23L319.18 393.273H320.019V394.841H319.487L316.789 399.111V399.179H321.958V400.295H315.408ZM319.546 402V399.972L319.555 399.486V393.273H320.803V402H319.546ZM326.242 402.145C325.568 402.142 324.993 401.964 324.516 401.612C324.038 401.26 323.673 400.747 323.421 400.074C323.168 399.401 323.041 398.589 323.041 397.641C323.041 396.695 323.168 395.886 323.421 395.216C323.676 394.545 324.043 394.034 324.52 393.682C325 393.33 325.574 393.153 326.242 393.153C326.909 393.153 327.482 393.331 327.959 393.686C328.436 394.038 328.801 394.55 329.054 395.22C329.31 395.888 329.438 396.695 329.438 397.641C329.438 398.592 329.311 399.405 329.058 400.078C328.806 400.749 328.44 401.261 327.963 401.616C327.486 401.969 326.912 402.145 326.242 402.145ZM326.242 401.007C326.833 401.007 327.294 400.719 327.627 400.142C327.962 399.565 328.129 398.732 328.129 397.641C328.129 396.916 328.053 396.304 327.899 395.804C327.749 395.301 327.531 394.92 327.247 394.662C326.966 394.401 326.631 394.27 326.242 394.27C325.654 394.27 325.192 394.56 324.857 395.139C324.521 395.719 324.352 396.553 324.35 397.641C324.35 398.368 324.425 398.983 324.575 399.486C324.729 399.986 324.946 400.365 325.227 400.624C325.509 400.879 325.847 401.007 326.242 401.007ZM335.265 400.364V399.903C335.265 399.574 335.333 399.273 335.469 399C335.608 398.724 335.81 398.504 336.074 398.339C336.341 398.172 336.664 398.088 337.042 398.088C337.428 398.088 337.752 398.17 338.013 398.335C338.275 398.5 338.472 398.72 338.606 398.996C338.742 399.271 338.81 399.574 338.81 399.903V400.364C338.81 400.693 338.742 400.996 338.606 401.271C338.469 401.544 338.269 401.764 338.005 401.932C337.743 402.097 337.422 402.179 337.042 402.179C336.658 402.179 336.334 402.097 336.07 401.932C335.806 401.764 335.606 401.544 335.469 401.271C335.333 400.996 335.265 400.693 335.265 400.364ZM336.258 399.903V400.364C336.258 400.608 336.316 400.83 336.432 401.028C336.549 401.227 336.752 401.327 337.042 401.327C337.329 401.327 337.529 401.227 337.643 401.028C337.756 400.83 337.813 400.608 337.813 400.364V399.903C337.813 399.659 337.758 399.437 337.647 399.239C337.539 399.04 337.337 398.94 337.042 398.94C336.758 398.94 336.556 399.04 336.437 399.239C336.317 399.437 336.258 399.659 336.258 399.903ZM330.876 395.369V394.909C330.876 394.58 330.944 394.277 331.08 394.001C331.219 393.726 331.421 393.506 331.685 393.341C331.952 393.176 332.275 393.094 332.653 393.094C333.039 393.094 333.363 393.176 333.624 393.341C333.885 393.506 334.083 393.726 334.216 394.001C334.35 394.277 334.417 394.58 334.417 394.909V395.369C334.417 395.699 334.349 396.001 334.212 396.277C334.079 396.55 333.88 396.77 333.616 396.938C333.354 397.102 333.033 397.185 332.653 397.185C332.266 397.185 331.941 397.102 331.677 396.938C331.415 396.77 331.216 396.55 331.08 396.277C330.944 396.001 330.876 395.699 330.876 395.369ZM331.873 394.909V395.369C331.873 395.614 331.93 395.835 332.043 396.034C332.16 396.233 332.363 396.332 332.653 396.332C332.937 396.332 333.135 396.233 333.249 396.034C333.366 395.835 333.424 395.614 333.424 395.369V394.909C333.424 394.665 333.368 394.443 333.258 394.244C333.147 394.045 332.945 393.946 332.653 393.946C332.368 393.946 332.167 394.045 332.047 394.244C331.931 394.443 331.873 394.665 331.873 394.909ZM331.28 402L337.28 393.273H338.299L332.299 402H331.28Z" fill="#BBBBBB"/>
<path d="M417.422 191.534V185.773H418.568V191.534H417.422ZM415.116 189.224V188.082H420.878V189.224H415.116ZM425.903 184.273V193H424.582V185.594H424.531L422.443 186.957V185.696L424.62 184.273H425.903ZM431.062 193.145C430.389 193.142 429.813 192.964 429.336 192.612C428.859 192.26 428.494 191.747 428.241 191.074C427.988 190.401 427.862 189.589 427.862 188.641C427.862 187.695 427.988 186.886 428.241 186.216C428.497 185.545 428.863 185.034 429.34 184.682C429.82 184.33 430.394 184.153 431.062 184.153C431.73 184.153 432.302 184.331 432.779 184.686C433.257 185.038 433.622 185.55 433.874 186.22C434.13 186.888 434.258 187.695 434.258 188.641C434.258 189.592 434.132 190.405 433.879 191.078C433.626 191.749 433.261 192.261 432.783 192.616C432.306 192.969 431.732 193.145 431.062 193.145ZM431.062 192.007C431.653 192.007 432.114 191.719 432.447 191.142C432.782 190.565 432.95 189.732 432.95 188.641C432.95 187.916 432.873 187.304 432.72 186.804C432.569 186.301 432.352 185.92 432.068 185.662C431.786 185.401 431.451 185.27 431.062 185.27C430.474 185.27 430.012 185.56 429.677 186.139C429.342 186.719 429.173 187.553 429.17 188.641C429.17 189.368 429.245 189.983 429.396 190.486C429.549 190.986 429.766 191.365 430.048 191.624C430.329 191.879 430.667 192.007 431.062 192.007ZM438.568 193.145C437.895 193.142 437.319 192.964 436.842 192.612C436.365 192.26 436 191.747 435.747 191.074C435.494 190.401 435.368 189.589 435.368 188.641C435.368 187.695 435.494 186.886 435.747 186.216C436.003 185.545 436.369 185.034 436.846 184.682C437.327 184.33 437.9 184.153 438.568 184.153C439.236 184.153 439.808 184.331 440.285 184.686C440.763 185.038 441.128 185.55 441.38 186.22C441.636 186.888 441.764 187.695 441.764 188.641C441.764 189.592 441.638 190.405 441.385 191.078C441.132 191.749 440.767 192.261 440.29 192.616C439.812 192.969 439.238 193.145 438.568 193.145ZM438.568 192.007C439.159 192.007 439.621 191.719 439.953 191.142C440.288 190.565 440.456 189.732 440.456 188.641C440.456 187.916 440.379 187.304 440.226 186.804C440.075 186.301 439.858 185.92 439.574 185.662C439.292 185.401 438.957 185.27 438.568 185.27C437.98 185.27 437.518 185.56 437.183 186.139C436.848 186.719 436.679 187.553 436.676 188.641C436.676 189.368 436.751 189.983 436.902 190.486C437.055 190.986 437.273 191.365 437.554 191.624C437.835 191.879 438.173 192.007 438.568 192.007ZM447.591 191.364V190.903C447.591 190.574 447.659 190.273 447.796 190C447.935 189.724 448.137 189.504 448.401 189.339C448.668 189.172 448.99 189.088 449.368 189.088C449.754 189.088 450.078 189.17 450.34 189.335C450.601 189.5 450.799 189.72 450.932 189.996C451.068 190.271 451.137 190.574 451.137 190.903V191.364C451.137 191.693 451.068 191.996 450.932 192.271C450.796 192.544 450.595 192.764 450.331 192.932C450.07 193.097 449.749 193.179 449.368 193.179C448.985 193.179 448.661 193.097 448.397 192.932C448.132 192.764 447.932 192.544 447.796 192.271C447.659 191.996 447.591 191.693 447.591 191.364ZM448.584 190.903V191.364C448.584 191.608 448.642 191.83 448.759 192.028C448.875 192.227 449.078 192.327 449.368 192.327C449.655 192.327 449.855 192.227 449.969 192.028C450.083 191.83 450.139 191.608 450.139 191.364V190.903C450.139 190.659 450.084 190.437 449.973 190.239C449.865 190.04 449.664 189.94 449.368 189.94C449.084 189.94 448.882 190.04 448.763 190.239C448.644 190.437 448.584 190.659 448.584 190.903ZM443.202 186.369V185.909C443.202 185.58 443.27 185.277 443.406 185.001C443.546 184.726 443.747 184.506 444.012 184.341C444.279 184.176 444.601 184.094 444.979 184.094C445.365 184.094 445.689 184.176 445.951 184.341C446.212 184.506 446.409 184.726 446.543 185.001C446.676 185.277 446.743 185.58 446.743 185.909V186.369C446.743 186.699 446.675 187.001 446.539 187.277C446.405 187.55 446.206 187.77 445.942 187.938C445.681 188.102 445.36 188.185 444.979 188.185C444.593 188.185 444.267 188.102 444.003 187.938C443.742 187.77 443.543 187.55 443.406 187.277C443.27 187.001 443.202 186.699 443.202 186.369ZM444.199 185.909V186.369C444.199 186.614 444.256 186.835 444.37 187.034C444.486 187.233 444.689 187.332 444.979 187.332C445.263 187.332 445.462 187.233 445.576 187.034C445.692 186.835 445.75 186.614 445.75 186.369V185.909C445.75 185.665 445.695 185.443 445.584 185.244C445.473 185.045 445.272 184.946 444.979 184.946C444.695 184.946 444.493 185.045 444.374 185.244C444.257 185.443 444.199 185.665 444.199 185.909ZM443.607 193L449.607 184.273H450.625L444.625 193H443.607Z" fill="#BBBBBB"/>
<path d="M838.422 187.534V181.773H839.568V187.534H838.422ZM836.116 185.224V184.082H841.878V185.224H836.116ZM846.903 180.273V189H845.582V181.594H845.531L843.443 182.957V181.696L845.62 180.273H846.903ZM852.062 189.119C851.477 189.119 850.954 189.018 850.494 188.817C850.036 188.615 849.674 188.335 849.407 187.977C849.143 187.616 849.001 187.199 848.981 186.724H850.319C850.336 186.983 850.423 187.207 850.579 187.398C850.738 187.585 850.945 187.73 851.201 187.832C851.457 187.935 851.741 187.986 852.053 187.986C852.397 187.986 852.701 187.926 852.965 187.807C853.232 187.687 853.441 187.521 853.592 187.308C853.742 187.092 853.818 186.844 853.818 186.562C853.818 186.27 853.742 186.013 853.592 185.791C853.444 185.567 853.227 185.391 852.94 185.263C852.656 185.135 852.312 185.071 851.908 185.071H851.171V183.997H851.908C852.232 183.997 852.516 183.939 852.761 183.822C853.008 183.706 853.201 183.544 853.34 183.337C853.48 183.126 853.549 182.881 853.549 182.599C853.549 182.33 853.488 182.095 853.366 181.896C853.247 181.695 853.076 181.537 852.855 181.423C852.636 181.31 852.377 181.253 852.079 181.253C851.795 181.253 851.529 181.305 851.282 181.411C851.038 181.513 850.839 181.661 850.685 181.854C850.532 182.044 850.45 182.273 850.438 182.54H849.164C849.178 182.068 849.318 181.653 849.582 181.295C849.849 180.937 850.201 180.658 850.639 180.456C851.076 180.254 851.562 180.153 852.096 180.153C852.656 180.153 853.139 180.263 853.545 180.482C853.954 180.697 854.269 180.986 854.491 181.347C854.715 181.707 854.826 182.102 854.823 182.531C854.826 183.02 854.69 183.435 854.414 183.776C854.141 184.116 853.778 184.345 853.323 184.462V184.53C853.903 184.618 854.352 184.848 854.67 185.22C854.991 185.592 855.15 186.054 855.147 186.605C855.15 187.085 855.016 187.516 854.747 187.896C854.48 188.277 854.114 188.577 853.651 188.795C853.188 189.011 852.658 189.119 852.062 189.119ZM859.556 189.145C858.883 189.142 858.308 188.964 857.83 188.612C857.353 188.26 856.988 187.747 856.735 187.074C856.482 186.401 856.356 185.589 856.356 184.641C856.356 183.695 856.482 182.886 856.735 182.216C856.991 181.545 857.357 181.034 857.835 180.682C858.315 180.33 858.889 180.153 859.556 180.153C860.224 180.153 860.796 180.331 861.274 180.686C861.751 181.038 862.116 181.55 862.369 182.22C862.624 182.888 862.752 183.695 862.752 184.641C862.752 185.592 862.626 186.405 862.373 187.078C862.12 187.749 861.755 188.261 861.278 188.616C860.801 188.969 860.227 189.145 859.556 189.145ZM859.556 188.007C860.147 188.007 860.609 187.719 860.941 187.142C861.276 186.565 861.444 185.732 861.444 184.641C861.444 183.916 861.367 183.304 861.214 182.804C861.063 182.301 860.846 181.92 860.562 181.662C860.281 181.401 859.945 181.27 859.556 181.27C858.968 181.27 858.507 181.56 858.171 182.139C857.836 182.719 857.667 183.553 857.664 184.641C857.664 185.368 857.74 185.983 857.89 186.486C858.043 186.986 858.261 187.365 858.542 187.624C858.823 187.879 859.161 188.007 859.556 188.007ZM868.579 187.364V186.903C868.579 186.574 868.648 186.273 868.784 186C868.923 185.724 869.125 185.504 869.389 185.339C869.656 185.172 869.979 185.088 870.356 185.088C870.743 185.088 871.067 185.17 871.328 185.335C871.589 185.5 871.787 185.72 871.92 185.996C872.057 186.271 872.125 186.574 872.125 186.903V187.364C872.125 187.693 872.057 187.996 871.92 188.271C871.784 188.544 871.584 188.764 871.319 188.932C871.058 189.097 870.737 189.179 870.356 189.179C869.973 189.179 869.649 189.097 869.385 188.932C869.121 188.764 868.92 188.544 868.784 188.271C868.648 187.996 868.579 187.693 868.579 187.364ZM869.572 186.903V187.364C869.572 187.608 869.631 187.83 869.747 188.028C869.864 188.227 870.067 188.327 870.356 188.327C870.643 188.327 870.844 188.227 870.957 188.028C871.071 187.83 871.128 187.608 871.128 187.364V186.903C871.128 186.659 871.072 186.437 870.962 186.239C870.854 186.04 870.652 185.94 870.356 185.94C870.072 185.94 869.871 186.04 869.751 186.239C869.632 186.437 869.572 186.659 869.572 186.903ZM864.19 182.369V181.909C864.19 181.58 864.258 181.277 864.395 181.001C864.534 180.726 864.736 180.506 865 180.341C865.267 180.176 865.589 180.094 865.967 180.094C866.354 180.094 866.677 180.176 866.939 180.341C867.2 180.506 867.398 180.726 867.531 181.001C867.665 181.277 867.731 181.58 867.731 181.909V182.369C867.731 182.699 867.663 183.001 867.527 183.277C867.393 183.55 867.194 183.77 866.93 183.938C866.669 184.102 866.348 184.185 865.967 184.185C865.581 184.185 865.256 184.102 864.991 183.938C864.73 183.77 864.531 183.55 864.395 183.277C864.258 183.001 864.19 182.699 864.19 182.369ZM865.187 181.909V182.369C865.187 182.614 865.244 182.835 865.358 183.034C865.474 183.233 865.677 183.332 865.967 183.332C866.251 183.332 866.45 183.233 866.564 183.034C866.68 182.835 866.739 182.614 866.739 182.369V181.909C866.739 181.665 866.683 181.443 866.572 181.244C866.462 181.045 866.26 180.946 865.967 180.946C865.683 180.946 865.481 181.045 865.362 181.244C865.246 181.443 865.187 181.665 865.187 181.909ZM864.595 189L870.595 180.273H871.614L865.614 189H864.595Z" fill="#BBBBBB"/>
<path d="M1217.42 34.5341V28.7727H1218.57V34.5341H1217.42ZM1215.12 32.2244V31.0824H1220.88V32.2244H1215.12ZM1222.24 36V35.0455L1225.19 31.9858C1225.51 31.6534 1225.77 31.3622 1225.97 31.1122C1226.18 30.8594 1226.34 30.6193 1226.44 30.392C1226.54 30.1648 1226.59 29.9233 1226.59 29.6676C1226.59 29.3778 1226.52 29.1278 1226.39 28.9176C1226.25 28.7045 1226.06 28.5412 1225.83 28.4276C1225.59 28.3111 1225.33 28.2528 1225.03 28.2528C1224.72 28.2528 1224.45 28.3168 1224.21 28.4446C1223.98 28.5724 1223.8 28.7528 1223.68 28.9858C1223.55 29.2187 1223.49 29.4915 1223.49 29.804H1222.23C1222.23 29.2727 1222.35 28.8082 1222.6 28.4105C1222.84 28.0128 1223.18 27.7045 1223.6 27.4858C1224.03 27.2642 1224.51 27.1534 1225.06 27.1534C1225.61 27.1534 1226.09 27.2628 1226.51 27.4815C1226.93 27.6974 1227.25 27.9929 1227.49 28.3679C1227.73 28.7401 1227.84 29.1605 1227.84 29.6293C1227.84 29.9531 1227.78 30.2699 1227.66 30.5795C1227.54 30.8892 1227.33 31.2344 1227.03 31.6151C1226.74 31.9929 1226.32 32.4517 1225.79 32.9915L1224.06 34.8068V34.8707H1227.98V36H1222.24ZM1232.4 36.1449C1231.72 36.142 1231.15 35.9645 1230.67 35.6122C1230.19 35.2599 1229.83 34.7472 1229.58 34.0739C1229.32 33.4006 1229.2 32.5895 1229.2 31.6406C1229.2 30.6946 1229.32 29.8864 1229.58 29.2159C1229.83 28.5455 1230.2 28.0341 1230.68 27.6818C1231.16 27.3295 1231.73 27.1534 1232.4 27.1534C1233.07 27.1534 1233.64 27.331 1234.12 27.6861C1234.59 28.0384 1234.96 28.5497 1235.21 29.2202C1235.47 29.8878 1235.59 30.6946 1235.59 31.6406C1235.59 32.5923 1235.47 33.4048 1235.21 34.0781C1234.96 34.7486 1234.6 35.2614 1234.12 35.6165C1233.64 35.9688 1233.07 36.1449 1232.4 36.1449ZM1232.4 35.0071C1232.99 35.0071 1233.45 34.7188 1233.78 34.142C1234.12 33.5653 1234.29 32.7315 1234.29 31.6406C1234.29 30.9162 1234.21 30.304 1234.06 29.804C1233.9 29.3011 1233.69 28.9205 1233.4 28.6619C1233.12 28.4006 1232.79 28.2699 1232.4 28.2699C1231.81 28.2699 1231.35 28.5597 1231.01 29.1392C1230.68 29.7187 1230.51 30.5526 1230.51 31.6406C1230.51 32.3679 1230.58 32.983 1230.73 33.4858C1230.89 33.9858 1231.1 34.3651 1231.38 34.6236C1231.66 34.8793 1232 35.0071 1232.4 35.0071ZM1239.9 36.1449C1239.23 36.142 1238.66 35.9645 1238.18 35.6122C1237.7 35.2599 1237.34 34.7472 1237.08 34.0739C1236.83 33.4006 1236.7 32.5895 1236.7 31.6406C1236.7 30.6946 1236.83 29.8864 1237.08 29.2159C1237.34 28.5455 1237.71 28.0341 1238.18 27.6818C1238.66 27.3295 1239.24 27.1534 1239.9 27.1534C1240.57 27.1534 1241.14 27.331 1241.62 27.6861C1242.1 28.0384 1242.46 28.5497 1242.72 29.2202C1242.97 29.8878 1243.1 30.6946 1243.1 31.6406C1243.1 32.5923 1242.97 33.4048 1242.72 34.0781C1242.47 34.7486 1242.1 35.2614 1241.63 35.6165C1241.15 35.9688 1240.57 36.1449 1239.9 36.1449ZM1239.9 35.0071C1240.49 35.0071 1240.96 34.7188 1241.29 34.142C1241.62 33.5653 1241.79 32.7315 1241.79 31.6406C1241.79 30.9162 1241.72 30.304 1241.56 29.804C1241.41 29.3011 1241.19 28.9205 1240.91 28.6619C1240.63 28.4006 1240.29 28.2699 1239.9 28.2699C1239.32 28.2699 1238.85 28.5597 1238.52 29.1392C1238.18 29.7187 1238.01 30.5526 1238.01 31.6406C1238.01 32.3679 1238.09 32.983 1238.24 33.4858C1238.39 33.9858 1238.61 34.3651 1238.89 34.6236C1239.17 34.8793 1239.51 35.0071 1239.9 35.0071ZM1248.93 34.3636V33.9034C1248.93 33.5739 1249 33.2727 1249.13 33C1249.27 32.7244 1249.47 32.5043 1249.74 32.3395C1250 32.1719 1250.33 32.0881 1250.7 32.0881C1251.09 32.0881 1251.41 32.1705 1251.68 32.3352C1251.94 32.5 1252.13 32.7202 1252.27 32.9957C1252.4 33.2713 1252.47 33.5739 1252.47 33.9034V34.3636C1252.47 34.6932 1252.4 34.9957 1252.27 35.2713C1252.13 35.544 1251.93 35.7642 1251.67 35.9318C1251.41 36.0966 1251.08 36.179 1250.7 36.179C1250.32 36.179 1250 36.0966 1249.73 35.9318C1249.47 35.7642 1249.27 35.544 1249.13 35.2713C1249 34.9957 1248.93 34.6932 1248.93 34.3636ZM1249.92 33.9034V34.3636C1249.92 34.608 1249.98 34.8295 1250.09 35.0284C1250.21 35.2273 1250.41 35.3267 1250.7 35.3267C1250.99 35.3267 1251.19 35.2273 1251.3 35.0284C1251.42 34.8295 1251.48 34.608 1251.48 34.3636V33.9034C1251.48 33.6591 1251.42 33.4375 1251.31 33.2386C1251.2 33.0398 1251 32.9403 1250.7 32.9403C1250.42 32.9403 1250.22 33.0398 1250.1 33.2386C1249.98 33.4375 1249.92 33.6591 1249.92 33.9034ZM1244.54 29.3693V28.9091C1244.54 28.5795 1244.61 28.277 1244.74 28.0014C1244.88 27.7259 1245.08 27.5057 1245.35 27.3409C1245.61 27.1761 1245.94 27.0938 1246.31 27.0938C1246.7 27.0938 1247.03 27.1761 1247.29 27.3409C1247.55 27.5057 1247.75 27.7259 1247.88 28.0014C1248.01 28.277 1248.08 28.5795 1248.08 28.9091V29.3693C1248.08 29.6989 1248.01 30.0014 1247.87 30.277C1247.74 30.5497 1247.54 30.7699 1247.28 30.9375C1247.02 31.1023 1246.7 31.1847 1246.31 31.1847C1245.93 31.1847 1245.6 31.1023 1245.34 30.9375C1245.08 30.7699 1244.88 30.5497 1244.74 30.277C1244.61 30.0014 1244.54 29.6989 1244.54 29.3693ZM1245.54 28.9091V29.3693C1245.54 29.6136 1245.59 29.8352 1245.71 30.0341C1245.82 30.233 1246.03 30.3324 1246.31 30.3324C1246.6 30.3324 1246.8 30.233 1246.91 30.0341C1247.03 29.8352 1247.09 29.6136 1247.09 29.3693V28.9091C1247.09 28.6648 1247.03 28.4432 1246.92 28.2443C1246.81 28.0455 1246.61 27.946 1246.31 27.946C1246.03 27.946 1245.83 28.0455 1245.71 28.2443C1245.59 28.4432 1245.54 28.6648 1245.54 28.9091ZM1244.94 36L1250.94 27.2727H1251.96L1245.96 36H1244.94Z" fill="#BBBBBB"/>
</svg>
